<svg width="234" height="56" viewBox="0 0 234 56" fill="none" xmlns="http://www.w3.org/2000/svg">
<path d="M0 55H233.25" stroke="url(#paint0_linear_430_5027)"/>
<rect x="23" width="35" height="35" rx="5" fill="#242529"/>
<path d="M26.4796 10.6616C27.4172 6.75217 30.4095 6.24022 31.7883 6.47292C34.7324 6.78676 35.5281 10.7164 35.5797 13.0109C35.6412 10.8932 36.621 7.38041 40.2686 7.38041C44.1298 7.38041 45.3144 11.3169 45.4349 13.3678C45.1007 6.22239 54.4045 1.14688 54.9538 13.4541C55.5054 25.8107 51.024 29.9994 46.4736 29.9994C42.8333 29.9994 40.8201 27.7654 40.2686 26.6484C39.3309 29.3851 35.8791 30.0227 34.2704 29.9994C25.7212 29.9994 25.3075 15.5484 26.4796 10.6616Z" fill="#FDFDFD"/>
<path fill-rule="evenodd" clip-rule="evenodd" d="M53.1514 7.33011C54.1418 8.52302 54.8189 10.5441 54.9546 13.5673C55.2255 19.606 54.2641 23.7048 52.6298 26.3055C50.9855 28.9223 48.6725 29.9994 46.3347 29.9994C43.1719 29.9994 41.1981 28.3489 40.3242 27.131C39.7408 28.2232 38.7443 28.9208 37.7201 29.3509C36.5174 29.8558 35.2359 30.0109 34.4128 29.9994C32.2182 29.9987 30.5382 29.0702 29.2874 27.6137C28.0451 26.1672 27.23 24.2064 26.7223 22.1263C25.7079 17.9703 25.8925 13.2173 26.478 10.789C26.9565 8.8041 27.9713 7.64849 29.072 7.02839C30.1553 6.41813 31.2963 6.3406 32.0362 6.4624C33.6378 6.63663 34.6267 7.79185 35.21 9.11605C35.4511 9.66346 35.6287 10.2508 35.7559 10.8321C35.9101 10.3623 36.1158 9.89615 36.385 9.46422C37.1308 8.26755 38.3623 7.34128 40.2739 7.34128C42.2962 7.34128 43.6257 8.3763 44.4501 9.65783C44.7714 10.1572 45.0173 10.6952 45.2011 11.2272C45.424 10.3008 45.8002 9.44915 46.2779 8.71488C47.1256 7.41168 48.3107 6.45334 49.56 6.1239C50.8311 5.78871 52.1426 6.11508 53.1514 7.33011ZM45.6568 13.4808C45.5792 11.8218 46.064 10.2825 46.8417 9.08701C47.6228 7.8864 48.6819 7.05732 49.7307 6.78074C50.7578 6.50992 51.7984 6.75893 52.6342 7.76567C53.4884 8.79453 54.1485 10.6415 54.2811 13.5979C54.5489 19.5663 53.5911 23.5061 52.0602 25.9424C50.5395 28.3624 48.4416 29.3204 46.3347 29.3204C42.926 29.3204 41.0662 27.2407 40.5754 26.2519C40.5148 26.1298 40.3874 26.0561 40.2521 26.065C40.1168 26.0738 39.9999 26.1635 39.9555 26.2925C39.5402 27.4982 38.5633 28.2612 37.4607 28.7242C36.3569 29.1876 35.1683 29.3312 34.42 29.3205L34.4152 29.3204C32.4357 29.3204 30.9346 28.4938 29.7973 27.1695C28.651 25.8348 27.8709 23.9882 27.3769 21.9642C26.3879 17.912 26.5737 13.2695 27.1331 10.9493C27.5704 9.13535 28.4748 8.1428 29.4011 7.62097C30.3399 7.09209 31.3282 7.03187 31.9354 7.13382C31.9421 7.13494 31.9488 7.13586 31.9556 7.13657C33.2236 7.27105 34.0582 8.17548 34.5938 9.3914C35.1283 10.6047 35.3314 12.0637 35.3569 13.1511C35.3525 13.3062 35.353 13.4546 35.3578 13.5943C35.3641 13.778 35.5144 13.9233 35.6969 13.9221C35.8794 13.9209 36.0278 13.7736 36.0317 13.5898C36.0346 13.4522 36.0345 13.3062 36.0312 13.1533C36.0614 12.1626 36.3081 10.8648 36.956 9.8252C37.5945 8.8007 38.6229 8.02026 40.2739 8.02026C42.0232 8.02026 43.1579 8.89778 43.8843 10.027C44.6194 11.1697 44.9269 12.5619 44.9836 13.5171C44.985 13.5455 44.9865 13.5739 44.9881 13.6023C44.9989 13.7887 45.157 13.9313 45.3421 13.9216C45.5272 13.9119 45.6698 13.7535 45.6613 13.567C45.66 13.5386 45.6585 13.5099 45.6568 13.4808Z" fill="black"/>
<path fill-rule="evenodd" clip-rule="evenodd" d="M39.4545 20.8724C39.273 20.8296 39.0924 20.9472 39.0511 21.1349C38.8481 22.0572 38.9686 23.1937 39.1815 24.2086C39.3963 25.2326 39.7155 26.1791 39.9467 26.7438C40.0192 26.9212 40.2171 27.004 40.3885 26.9289C40.5599 26.8538 40.64 26.6492 40.5674 26.4719C40.351 25.9432 40.0453 25.0381 39.8403 24.0607C39.6333 23.0743 39.5389 22.0598 39.7083 21.2897C39.7497 21.102 39.636 20.9151 39.4545 20.8724Z" fill="black"/>
<path d="M80.328 11.4H83.304L79.544 24.44H76.6L74.264 16.264L71.928 24.44H68.984L65.224 11.4H68.344L70.584 19.928L72.824 11.4H75.848L78.072 19.896L80.328 11.4ZM87.6364 24.664C84.9484 24.664 83.0764 22.6 83.0764 19.752C83.0764 16.904 84.9484 14.84 87.6364 14.84C88.8684 14.84 89.7644 15.272 90.3244 16.024V15.064H93.1724V24.44H90.3244V23.48C89.7644 24.232 88.8684 24.664 87.6364 24.664ZM88.0844 22.232C89.4764 22.232 90.3724 21.192 90.3724 19.752C90.3724 18.312 89.4764 17.272 88.0844 17.272C86.7244 17.272 85.8604 18.312 85.8604 19.752C85.8604 21.192 86.7244 22.232 88.0844 22.232ZM100.106 28.568C97.322 28.568 95.786 26.984 95.482 25.176H98.362C98.506 25.784 99.05 26.168 100.106 26.168C101.29 26.168 102.09 25.4 102.09 24.232V23.24C101.53 23.992 100.634 24.424 99.402 24.424C96.714 24.424 94.842 22.424 94.842 19.672C94.842 16.872 96.714 14.84 99.402 14.84C100.634 14.84 101.53 15.272 102.09 16.024V15.064H104.938V24.264C104.938 26.808 102.906 28.568 100.106 28.568ZM99.85 22.072C101.242 22.072 102.138 21.064 102.138 19.672C102.138 18.28 101.242 17.272 99.85 17.272C98.49 17.272 97.626 18.28 97.626 19.672C97.626 21.064 98.49 22.072 99.85 22.072ZM111.872 28.568C109.088 28.568 107.552 26.984 107.248 25.176H110.128C110.272 25.784 110.816 26.168 111.872 26.168C113.056 26.168 113.856 25.4 113.856 24.232V23.24C113.296 23.992 112.4 24.424 111.168 24.424C108.48 24.424 106.608 22.424 106.608 19.672C106.608 16.872 108.48 14.84 111.168 14.84C112.4 14.84 113.296 15.272 113.856 16.024V15.064H116.704V24.264C116.704 26.808 114.672 28.568 111.872 28.568ZM111.616 22.072C113.008 22.072 113.904 21.064 113.904 19.672C113.904 18.28 113.008 17.272 111.616 17.272C110.256 17.272 109.392 18.28 109.392 19.672C109.392 21.064 110.256 22.072 111.616 22.072ZM121.701 11V24.44H118.853V11H121.701ZM128.238 24.664C125.374 24.664 123.358 22.616 123.358 19.752C123.358 16.904 125.374 14.84 128.238 14.84C131.102 14.84 133.118 16.888 133.118 19.752C133.118 20.024 133.102 20.328 133.054 20.664H126.19C126.414 21.752 127.166 22.376 128.238 22.376C129.054 22.376 129.726 22.088 129.966 21.64H132.83C132.35 23.432 130.51 24.664 128.238 24.664ZM126.174 18.824H130.334C130.094 17.704 129.358 17.096 128.238 17.096C127.118 17.096 126.414 17.704 126.174 18.824ZM153.531 11.4H156.507L152.747 24.44H149.803L147.467 16.264L145.131 24.44H142.187L138.427 11.4H141.547L143.787 19.928L146.027 11.4H149.051L151.275 19.896L153.531 11.4ZM160.84 24.664C158.152 24.664 156.28 22.6 156.28 19.752C156.28 16.904 158.152 14.84 160.84 14.84C162.072 14.84 162.968 15.272 163.528 16.024V15.064H166.376V24.44H163.528V23.48C162.968 24.232 162.072 24.664 160.84 24.664ZM161.288 22.232C162.68 22.232 163.576 21.192 163.576 19.752C163.576 18.312 162.68 17.272 161.288 17.272C159.928 17.272 159.064 18.312 159.064 19.752C159.064 21.192 159.928 22.232 161.288 22.232ZM173.309 28.568C170.525 28.568 168.989 26.984 168.685 25.176H171.565C171.709 25.784 172.253 26.168 173.309 26.168C174.493 26.168 175.293 25.4 175.293 24.232V23.24C174.733 23.992 173.837 24.424 172.605 24.424C169.917 24.424 168.045 22.424 168.045 19.672C168.045 16.872 169.917 14.84 172.605 14.84C173.837 14.84 174.733 15.272 175.293 16.024V15.064H178.141V24.264C178.141 26.808 176.109 28.568 173.309 28.568ZM173.053 22.072C174.445 22.072 175.341 21.064 175.341 19.672C175.341 18.28 174.445 17.272 173.053 17.272C171.693 17.272 170.829 18.28 170.829 19.672C170.829 21.064 171.693 22.072 173.053 22.072ZM185.075 28.568C182.291 28.568 180.755 26.984 180.451 25.176H183.331C183.475 25.784 184.019 26.168 185.075 26.168C186.259 26.168 187.059 25.4 187.059 24.232V23.24C186.499 23.992 185.603 24.424 184.371 24.424C181.683 24.424 179.811 22.424 179.811 19.672C179.811 16.872 181.683 14.84 184.371 14.84C185.603 14.84 186.499 15.272 187.059 16.024V15.064H189.907V24.264C189.907 26.808 187.875 28.568 185.075 28.568ZM184.819 22.072C186.211 22.072 187.107 21.064 187.107 19.672C187.107 18.28 186.211 17.272 184.819 17.272C183.459 17.272 182.595 18.28 182.595 19.672C182.595 21.064 183.459 22.072 184.819 22.072ZM194.904 11V24.44H192.056V11H194.904ZM201.441 24.664C198.577 24.664 196.561 22.616 196.561 19.752C196.561 16.904 198.577 14.84 201.441 14.84C204.305 14.84 206.321 16.888 206.321 19.752C206.321 20.024 206.305 20.328 206.257 20.664H199.393C199.617 21.752 200.369 22.376 201.441 22.376C202.257 22.376 202.929 22.088 203.169 21.64H206.033C205.553 23.432 203.713 24.664 201.441 24.664ZM199.377 18.824H203.537C203.297 17.704 202.561 17.096 201.441 17.096C200.321 17.096 199.617 17.704 199.377 18.824Z" fill="#242529"/>
<defs>
<linearGradient id="paint0_linear_430_5027" x1="0" y1="55" x2="231" y2="55" gradientUnits="userSpaceOnUse">
<stop stop-color="#E0E1E2" stop-opacity="0"/>
<stop offset="0.5" stop-color="#E0E1E2"/>
<stop offset="1" stop-color="#E0E1E2" stop-opacity="0.15625"/>
</linearGradient>
</defs>
</svg>
