<svg width="184" height="35" viewBox="0 0 184 35" fill="none" xmlns="http://www.w3.org/2000/svg">
<rect width="35" height="35" rx="5" fill="#242529"/>
<path d="M3.5 11.5C4.43765 7.59055 7.1211 6.26729 8.5 6.5C11.444 6.81383 12.5281 10.7162 12.5796 13.0107C12.6411 10.893 13.621 7.38019 17.2685 7.38019C21.1297 7.38019 22.3143 11.3166 22.4349 13.3676C22.1006 6.22217 30.9887 1.99931 31.4999 13.4538C32.0515 25.8105 27.1138 29.9992 23.4735 29.9992C19.8332 29.9992 17.8201 27.7652 17.2685 26.6482C16.3309 29.3848 12.879 30.0224 11.2703 29.9992C4.00009 30 2.32794 16.3868 3.5 11.5Z" fill="white"/>
<path fill-rule="evenodd" clip-rule="evenodd" d="M30.1514 7.33011C31.1418 8.52302 31.8189 10.5441 31.9545 13.5673C32.2255 19.606 31.264 23.7048 29.6298 26.3055C27.9855 28.9223 25.6725 29.9994 23.3347 29.9994C20.1719 29.9994 18.1981 28.3489 17.3242 27.131C16.7408 28.2232 15.7443 28.9208 14.7201 29.3509C13.5174 29.8558 12.2359 30.0109 11.4128 29.9994C9.21822 29.9987 7.53821 29.0702 6.28741 27.6137C5.04513 26.1672 4.23002 24.2064 3.72231 22.1263C2.70793 17.9703 2.89254 13.2173 3.47796 10.789C3.95651 8.8041 4.9713 7.64849 6.07202 7.02839C7.15528 6.41813 8.2963 6.3406 9.03621 6.4624C10.6378 6.63663 11.6267 7.79185 12.21 9.11605C12.4511 9.66346 12.6287 10.2508 12.7559 10.8321C12.9101 10.3623 13.1158 9.89615 13.385 9.46422C14.1308 8.26755 15.3623 7.34128 17.2739 7.34128C19.2962 7.34128 20.6257 8.3763 21.4501 9.65783C21.7713 10.1572 22.0172 10.6952 22.2011 11.2272C22.424 10.3008 22.8002 9.44915 23.2778 8.71488C24.1256 7.41168 25.3107 6.45334 26.56 6.1239C27.8311 5.78871 29.1426 6.11508 30.1514 7.33011ZM22.6568 13.4808C22.5792 11.8218 23.064 10.2825 23.8417 9.08701C24.6228 7.8864 25.6819 7.05732 26.7307 6.78074C27.7578 6.50992 28.7984 6.75893 29.6342 7.76567C30.4884 8.79453 31.1485 10.6415 31.2811 13.5979C31.5489 19.5663 30.5911 23.5061 29.0602 25.9424C27.5395 28.3624 25.4416 29.3204 23.3347 29.3204C19.926 29.3204 18.0662 27.2407 17.5754 26.2519C17.5148 26.1298 17.3874 26.0561 17.2521 26.065C17.1168 26.0738 16.9999 26.1635 16.9555 26.2925C16.5402 27.4982 15.5633 28.2612 14.4607 28.7242C13.3569 29.1876 12.1683 29.3312 11.42 29.3205L11.4152 29.3204C9.43571 29.3204 7.93456 28.4938 6.79727 27.1695C5.651 25.8348 4.87095 23.9882 4.37694 21.9642C3.38789 17.912 3.57366 13.2695 4.13305 10.9493C4.57036 9.13535 5.47482 8.1428 6.4011 7.62097C7.33992 7.09209 8.32819 7.03187 8.93544 7.13382C8.94212 7.13494 8.94883 7.13586 8.95556 7.13657C10.2236 7.27105 11.0582 8.17548 11.5938 9.3914C12.1283 10.6047 12.3314 12.0637 12.3569 13.1511C12.3525 13.3062 12.353 13.4546 12.3578 13.5943C12.3641 13.778 12.5144 13.9233 12.6969 13.9221C12.8794 13.9209 13.0278 13.7736 13.0317 13.5898C13.0346 13.4522 13.0345 13.3062 13.0312 13.1533C13.0614 12.1626 13.3081 10.8648 13.956 9.8252C14.5945 8.8007 15.6229 8.02026 17.2739 8.02026C19.0232 8.02026 20.1579 8.89778 20.8843 10.027C21.6194 11.1697 21.9269 12.5619 21.9836 13.5171C21.985 13.5455 21.9865 13.5739 21.9881 13.6023C21.9989 13.7887 22.157 13.9313 22.3421 13.9216C22.5272 13.9119 22.6698 13.7535 22.6613 13.567C22.66 13.5386 22.6585 13.5099 22.6568 13.4808Z" fill="#242529"/>
<path fill-rule="evenodd" clip-rule="evenodd" d="M16.4545 20.8724C16.273 20.8296 16.0924 20.9472 16.0511 21.1349C15.8481 22.0572 15.9686 23.1937 16.1815 24.2086C16.3963 25.2326 16.7155 26.1791 16.9467 26.7438C17.0192 26.9212 17.2171 27.004 17.3885 26.9289C17.5599 26.8538 17.64 26.6492 17.5674 26.4719C17.351 25.9432 17.0453 25.0381 16.8403 24.0607C16.6333 23.0743 16.5389 22.0598 16.7083 21.2897C16.7497 21.102 16.636 20.9151 16.4545 20.8724Z" fill="#242529"/>
<path d="M57.328 11.4H60.304L56.544 24.44H53.6L51.264 16.264L48.928 24.44H45.984L42.224 11.4H45.344L47.584 19.928L49.824 11.4H52.848L55.072 19.896L57.328 11.4ZM64.6364 24.664C61.9484 24.664 60.0764 22.6 60.0764 19.752C60.0764 16.904 61.9484 14.84 64.6364 14.84C65.8684 14.84 66.7644 15.272 67.3244 16.024V15.064H70.1724V24.44H67.3244V23.48C66.7644 24.232 65.8684 24.664 64.6364 24.664ZM65.0844 22.232C66.4764 22.232 67.3724 21.192 67.3724 19.752C67.3724 18.312 66.4764 17.272 65.0844 17.272C63.7244 17.272 62.8604 18.312 62.8604 19.752C62.8604 21.192 63.7244 22.232 65.0844 22.232ZM77.106 28.568C74.322 28.568 72.786 26.984 72.482 25.176H75.362C75.506 25.784 76.05 26.168 77.106 26.168C78.29 26.168 79.09 25.4 79.09 24.232V23.24C78.53 23.992 77.634 24.424 76.402 24.424C73.714 24.424 71.842 22.424 71.842 19.672C71.842 16.872 73.714 14.84 76.402 14.84C77.634 14.84 78.53 15.272 79.09 16.024V15.064H81.938V24.264C81.938 26.808 79.906 28.568 77.106 28.568ZM76.85 22.072C78.242 22.072 79.138 21.064 79.138 19.672C79.138 18.28 78.242 17.272 76.85 17.272C75.49 17.272 74.626 18.28 74.626 19.672C74.626 21.064 75.49 22.072 76.85 22.072ZM88.8716 28.568C86.0876 28.568 84.5516 26.984 84.2476 25.176H87.1276C87.2716 25.784 87.8156 26.168 88.8716 26.168C90.0556 26.168 90.8556 25.4 90.8556 24.232V23.24C90.2956 23.992 89.3996 24.424 88.1676 24.424C85.4796 24.424 83.6076 22.424 83.6076 19.672C83.6076 16.872 85.4796 14.84 88.1676 14.84C89.3996 14.84 90.2956 15.272 90.8556 16.024V15.064H93.7036V24.264C93.7036 26.808 91.6716 28.568 88.8716 28.568ZM88.6156 22.072C90.0076 22.072 90.9036 21.064 90.9036 19.672C90.9036 18.28 90.0076 17.272 88.6156 17.272C87.2556 17.272 86.3916 18.28 86.3916 19.672C86.3916 21.064 87.2556 22.072 88.6156 22.072ZM98.7013 11V24.44H95.8533V11H98.7013ZM105.238 24.664C102.374 24.664 100.358 22.616 100.358 19.752C100.358 16.904 102.374 14.84 105.238 14.84C108.102 14.84 110.118 16.888 110.118 19.752C110.118 20.024 110.102 20.328 110.054 20.664H103.19C103.414 21.752 104.166 22.376 105.238 22.376C106.054 22.376 106.726 22.088 106.966 21.64H109.83C109.35 23.432 107.51 24.664 105.238 24.664ZM103.174 18.824H107.334C107.094 17.704 106.358 17.096 105.238 17.096C104.118 17.096 103.414 17.704 103.174 18.824ZM130.531 11.4H133.507L129.747 24.44H126.803L124.467 16.264L122.131 24.44H119.187L115.427 11.4H118.547L120.787 19.928L123.027 11.4H126.051L128.275 19.896L130.531 11.4ZM137.84 24.664C135.152 24.664 133.28 22.6 133.28 19.752C133.28 16.904 135.152 14.84 137.84 14.84C139.072 14.84 139.968 15.272 140.528 16.024V15.064H143.376V24.44H140.528V23.48C139.968 24.232 139.072 24.664 137.84 24.664ZM138.288 22.232C139.68 22.232 140.576 21.192 140.576 19.752C140.576 18.312 139.68 17.272 138.288 17.272C136.928 17.272 136.064 18.312 136.064 19.752C136.064 21.192 136.928 22.232 138.288 22.232ZM150.309 28.568C147.525 28.568 145.989 26.984 145.685 25.176H148.565C148.709 25.784 149.253 26.168 150.309 26.168C151.493 26.168 152.293 25.4 152.293 24.232V23.24C151.733 23.992 150.837 24.424 149.605 24.424C146.917 24.424 145.045 22.424 145.045 19.672C145.045 16.872 146.917 14.84 149.605 14.84C150.837 14.84 151.733 15.272 152.293 16.024V15.064H155.141V24.264C155.141 26.808 153.109 28.568 150.309 28.568ZM150.053 22.072C151.445 22.072 152.341 21.064 152.341 19.672C152.341 18.28 151.445 17.272 150.053 17.272C148.693 17.272 147.829 18.28 147.829 19.672C147.829 21.064 148.693 22.072 150.053 22.072ZM162.075 28.568C159.291 28.568 157.755 26.984 157.451 25.176H160.331C160.475 25.784 161.019 26.168 162.075 26.168C163.259 26.168 164.059 25.4 164.059 24.232V23.24C163.499 23.992 162.603 24.424 161.371 24.424C158.683 24.424 156.811 22.424 156.811 19.672C156.811 16.872 158.683 14.84 161.371 14.84C162.603 14.84 163.499 15.272 164.059 16.024V15.064H166.907V24.264C166.907 26.808 164.875 28.568 162.075 28.568ZM161.819 22.072C163.211 22.072 164.107 21.064 164.107 19.672C164.107 18.28 163.211 17.272 161.819 17.272C160.459 17.272 159.595 18.28 159.595 19.672C159.595 21.064 160.459 22.072 161.819 22.072ZM171.904 11V24.44H169.056V11H171.904ZM178.441 24.664C175.577 24.664 173.561 22.616 173.561 19.752C173.561 16.904 175.577 14.84 178.441 14.84C181.305 14.84 183.321 16.888 183.321 19.752C183.321 20.024 183.305 20.328 183.257 20.664H176.393C176.617 21.752 177.369 22.376 178.441 22.376C179.257 22.376 179.929 22.088 180.169 21.64H183.033C182.553 23.432 180.713 24.664 178.441 24.664ZM176.377 18.824H180.537C180.297 17.704 179.561 17.096 178.441 17.096C177.321 17.096 176.617 17.704 176.377 18.824Z" fill="#242529"/>
</svg>
