<svg width="15" height="17" viewBox="0 0 15 17" fill="none" xmlns="http://www.w3.org/2000/svg">
<g id="mingcute:birthday-2-line" clip-path="url(#clip0_284_2315)">
<g id="Group">
<path id="Vector" fill-rule="evenodd" clip-rule="evenodd" d="M11.1985 6.93099C11.6743 6.93096 12.1321 7.12411 12.4782 7.47091C12.8244 7.81771 13.0328 8.29194 13.0607 8.79659L13.0638 8.91286V10.8947C13.0638 11.3175 12.8281 11.6472 12.5154 11.7978L12.442 11.8288V14.1978C12.4421 14.5312 12.3236 14.8522 12.1103 15.0966C11.897 15.3411 11.6046 15.4908 11.2918 15.5158L11.1985 15.5191H3.73736C3.42363 15.5192 3.12146 15.3933 2.89142 15.1666C2.66138 14.94 2.52047 14.6293 2.49694 14.2969L2.49383 14.1978V11.8295C2.32598 11.7674 2.1785 11.6552 2.06902 11.5065C1.95954 11.3577 1.89267 11.1786 1.87642 10.9905L1.87207 10.8947V8.91286C1.87204 8.40734 2.05383 7.92092 2.38023 7.55313C2.70663 7.18533 3.15297 6.96395 3.62793 6.9343L3.73736 6.93099H11.1985ZM11.1568 11.3572C11.0604 11.2803 10.945 11.2348 10.8246 11.2264C10.7043 11.2179 10.5843 11.2468 10.4791 11.3096L10.4107 11.3572L10.2453 11.4893C9.94023 11.7325 9.57226 11.8706 9.19104 11.8847C8.80982 11.8989 8.43368 11.7886 8.11331 11.5686L8.00699 11.4893L7.84098 11.3572C7.74453 11.2803 7.62911 11.2348 7.50877 11.2264C7.38844 11.2179 7.2684 11.2468 7.16326 11.3096L7.09487 11.3572L6.92886 11.4893C6.62381 11.7324 6.25596 11.8703 5.87487 11.8845C5.49378 11.8987 5.11776 11.7884 4.79746 11.5686L4.69052 11.4893L4.52513 11.3572C4.42867 11.2803 4.31325 11.2348 4.19292 11.2264C4.07259 11.2179 3.95254 11.2468 3.84741 11.3096L3.77901 11.3572L3.73736 11.3902V14.1978H11.1985V11.3902L11.1568 11.3572ZM11.1985 8.25224H3.73736C3.57245 8.25224 3.41431 8.32184 3.2977 8.44573C3.1811 8.56962 3.11559 8.73765 3.11559 8.91286V10.2374C3.43679 10.0094 3.81669 9.89302 4.20282 9.90426C4.58895 9.9155 4.96227 10.0538 5.27124 10.3002L5.43663 10.4323C5.54425 10.5181 5.67516 10.5644 5.80969 10.5644C5.94422 10.5644 6.07512 10.5181 6.18274 10.4323L6.34875 10.3002C6.67163 10.0429 7.06433 9.90379 7.46793 9.90379C7.87152 9.90379 8.26422 10.0429 8.5871 10.3002L8.75311 10.4323C8.86073 10.5181 8.99163 10.5644 9.12616 10.5644C9.26069 10.5644 9.3916 10.5181 9.49922 10.4323L9.66461 10.3002C9.97358 10.0538 10.3469 9.9155 10.733 9.90426C11.1192 9.89302 11.4991 10.0094 11.8203 10.2374V8.91286C11.8203 8.73765 11.7548 8.56962 11.6381 8.44573C11.5215 8.32184 11.3634 8.25224 11.1985 8.25224ZM7.84098 2.43877C8.09802 2.6521 8.33668 2.88932 8.55414 3.14761C8.87995 3.53672 9.33321 4.19272 9.33321 4.94913C9.33321 5.47475 9.13669 5.97885 8.78688 6.35052C8.43707 6.72219 7.96263 6.93099 7.46793 6.93099C6.97322 6.93099 6.49878 6.72219 6.14897 6.35052C5.79916 5.97885 5.60264 5.47475 5.60264 4.94913C5.60264 4.19272 6.05653 3.53672 6.38171 3.14761C6.59917 2.88932 6.83783 2.6521 7.09487 2.43877C7.20249 2.353 7.33339 2.30664 7.46793 2.30664C7.60246 2.30664 7.73336 2.353 7.84098 2.43877ZM7.46793 3.84853C7.4139 3.90593 7.36144 3.96497 7.31062 4.02558C7.01466 4.37967 6.84616 4.71461 6.84616 4.94913C6.84616 5.12434 6.91167 5.29237 7.02827 5.41626C7.14488 5.54015 7.30302 5.60975 7.46793 5.60975C7.63283 5.60975 7.79097 5.54015 7.90758 5.41626C8.02418 5.29237 8.08969 5.12434 8.08969 4.94913C8.08969 4.71461 7.92181 4.37967 7.62523 4.02558C7.57441 3.96497 7.52195 3.90593 7.46793 3.84853Z" fill="#F9D300"/>
</g>
</g>
<defs>
<clipPath id="clip0_284_2315">
<rect width="14.9223" height="15.8549" fill="white" transform="translate(0.00683594 0.984375)"/>
</clipPath>
</defs>
</svg>
