<svg width="9" height="10" viewBox="0 0 9 10" fill="none" xmlns="http://www.w3.org/2000/svg">
<path d="M1.50048 8.37426C1.53037 8.37787 1.56059 8.37787 1.59048 8.37426L3.09048 7.99926C3.15702 7.98344 3.21797 7.94973 3.26673 7.90176L7.87548 3.27801C8.01517 3.13749 8.09357 2.9474 8.09357 2.74926C8.09357 2.55112 8.01517 2.36103 7.87548 2.22051L7.28298 1.62426C7.21332 1.55453 7.13061 1.49921 7.03956 1.46147C6.94851 1.42372 6.85091 1.4043 6.75235 1.4043C6.65379 1.4043 6.5562 1.42372 6.46515 1.46147C6.3741 1.49921 6.29138 1.55453 6.22173 1.62426L1.61298 6.23301C1.56452 6.28199 1.52963 6.34273 1.51173 6.40926L1.13673 7.90926C1.12325 7.95778 1.11968 8.00852 1.12624 8.05845C1.13279 8.10838 1.14934 8.15648 1.17489 8.19988C1.20044 8.24327 1.23446 8.28108 1.27494 8.31104C1.31542 8.341 1.36151 8.3625 1.41048 8.37426C1.44037 8.37787 1.47059 8.37787 1.50048 8.37426ZM6.75048 2.15301L7.34673 2.74926L6.75048 3.34551L6.15798 2.74926L6.75048 2.15301ZM2.21673 6.69051L5.62548 3.27801L6.22173 3.87426L2.80923 7.28676L2.01798 7.48176L2.21673 6.69051Z" fill="currentColor"/>
</svg>
