<svg width="16" height="16" viewBox="0 0 16 16" fill="none" xmlns="http://www.w3.org/2000/svg">
<g id=".right-icon">
<path id="Vector" d="M14.5534 7.79597L1.48308 1.24285C1.42996 1.21629 1.36902 1.21004 1.31121 1.2241C1.1784 1.25691 1.09558 1.39129 1.1284 1.52566L2.47527 7.02879C2.49558 7.1116 2.55652 7.17879 2.63777 7.20535L4.94558 7.99754L2.63933 8.78972C2.55808 8.81785 2.49715 8.88347 2.4784 8.96629L1.1284 14.4772C1.11433 14.535 1.12058 14.596 1.14715 14.6475C1.20808 14.771 1.35808 14.821 1.48308 14.76L14.5534 8.24441C14.6018 8.22097 14.6409 8.18035 14.6659 8.13347C14.7268 8.00847 14.6768 7.85847 14.5534 7.79597ZM2.66902 12.9116L3.45496 9.6991L8.06746 8.11629C8.1034 8.10379 8.13308 8.07566 8.14558 8.03816C8.16746 7.97254 8.13308 7.90222 8.06746 7.87879L3.45496 6.29754L2.67215 3.09754L12.4846 8.01785L2.66902 12.9116V12.9116Z" fill="currentColor"/>
</g>
</svg>
