<svg xmlns="http://www.w3.org/2000/svg" width="15" height="15" viewBox="0 0 15 15" fill="none">
  <path d="M11.9625 8.0875C11.9875 7.9 12 7.70625 12 7.5C12 7.3 11.9875 7.1 11.9563 6.9125L13.225 5.925C13.2797 5.87994 13.3171 5.81731 13.3307 5.74779C13.3444 5.67828 13.3336 5.60617 13.3 5.54375L12.1 3.46875C12.0647 3.40598 12.0083 3.35774 11.9408 3.33257C11.8733 3.3074 11.7991 3.30694 11.7313 3.33125L10.2375 3.93125C9.92504 3.69375 9.59379 3.49375 9.22504 3.34375L9.00004 1.75625C8.98897 1.68471 8.95261 1.61951 8.89756 1.57249C8.84252 1.52547 8.77243 1.49975 8.70004 1.5H6.30004C6.15004 1.5 6.03129 1.60625 6.00629 1.75625L5.78129 3.34375C5.41254 3.49375 5.07504 3.7 4.76879 3.93125L3.27504 3.33125C3.13754 3.28125 2.98129 3.33125 2.90629 3.46875L1.71254 5.54375C1.63754 5.675 1.66254 5.8375 1.78754 5.925L3.05629 6.9125C3.02504 7.1 3.00004 7.30625 3.00004 7.5C3.00004 7.69375 3.01254 7.9 3.04379 8.0875L1.77504 9.075C1.72037 9.12007 1.68301 9.18269 1.66933 9.25221C1.65566 9.32173 1.66651 9.39384 1.70004 9.45625L2.90004 11.5313C2.97504 11.6688 3.13129 11.7125 3.26879 11.6688L4.76254 11.0688C5.07504 11.3063 5.40629 11.5063 5.77504 11.6563L6.00004 13.2438C6.03129 13.3938 6.15004 13.5 6.30004 13.5H8.70004C8.85004 13.5 8.97504 13.3938 8.99379 13.2438L9.21879 11.6563C9.58754 11.5063 9.92504 11.3063 10.2313 11.0688L11.725 11.6688C11.8625 11.7188 12.0188 11.6688 12.0938 11.5313L13.2938 9.45625C13.3688 9.31875 13.3375 9.1625 13.2188 9.075L11.9625 8.0875ZM7.50004 9.75C6.26254 9.75 5.25004 8.7375 5.25004 7.5C5.25004 6.2625 6.26254 5.25 7.50004 5.25C8.73754 5.25 9.75004 6.2625 9.75004 7.5C9.75004 8.7375 8.73754 9.75 7.50004 9.75Z" fill="#36373F"/>
</svg>