<svg width="18" height="18" viewBox="0 0 18 18" fill="none" xmlns="http://www.w3.org/2000/svg">
<path d="M15.1872 15.7501C15.1133 15.7502 15.0402 15.7357 14.9719 15.7074C14.9037 15.6791 14.8417 15.6376 14.7896 15.5852L2.41461 3.21019C2.31357 3.10384 2.25808 2.96223 2.25995 2.81555C2.26183 2.66887 2.32093 2.52873 2.42466 2.42501C2.52839 2.32128 2.66853 2.26218 2.81521 2.2603C2.96189 2.25842 3.10349 2.31392 3.20984 2.41495L15.5848 14.79C15.6635 14.8686 15.717 14.9688 15.7387 15.0779C15.7604 15.187 15.7492 15.3 15.7067 15.4028C15.6641 15.5055 15.5921 15.5934 15.4996 15.6552C15.4071 15.717 15.2984 15.75 15.1872 15.7501V15.7501ZM8.98777 13.5001C7.52914 13.5001 6.12254 13.0684 4.80699 12.2169C3.60922 11.4434 2.53097 10.3357 1.68863 9.01765V9.01484C2.38965 8.01042 3.15746 7.16105 3.98222 6.4762C3.98969 6.46997 3.99577 6.46225 4.0001 6.45354C4.00442 6.44483 4.0069 6.43532 4.00736 6.4256C4.00782 6.41589 4.00626 6.40619 4.00279 6.3971C3.99931 6.38802 3.99398 6.37976 3.98715 6.37284L3.28683 5.67359C3.27439 5.66104 3.25768 5.65364 3.24002 5.65286C3.22237 5.65207 3.20507 5.65797 3.19156 5.66937C2.31547 6.40765 1.5023 7.31327 0.762967 8.37359C0.635766 8.55615 0.565712 8.77242 0.561705 8.99489C0.557699 9.21737 0.619922 9.43601 0.740467 9.62304C1.66894 11.076 2.8639 12.2998 4.19562 13.1615C5.69504 14.1329 7.30871 14.6251 8.98777 14.6251C9.89409 14.6223 10.794 14.4729 11.6526 14.1828C11.6639 14.179 11.6741 14.1723 11.6821 14.1634C11.6902 14.1546 11.6958 14.1438 11.6985 14.1322C11.7012 14.1205 11.7009 14.1084 11.6976 14.0969C11.6943 14.0854 11.6882 14.0749 11.6797 14.0664L10.921 13.3078C10.9035 13.2907 10.882 13.2785 10.8583 13.2724C10.8347 13.2662 10.8099 13.2663 10.7864 13.2726C10.1988 13.4239 9.59449 13.5003 8.98777 13.5001V13.5001ZM17.2558 8.38835C16.3256 6.94976 15.1187 5.72773 13.7659 4.85409C12.2693 3.88659 10.6169 3.37507 8.98777 3.37507C8.09107 3.37666 7.20102 3.52914 6.35492 3.82613C6.34365 3.83005 6.33356 3.83678 6.3256 3.84568C6.31765 3.85458 6.31209 3.86535 6.30945 3.87699C6.30682 3.88864 6.30719 3.90076 6.31053 3.91222C6.31387 3.92367 6.32007 3.93409 6.32855 3.94249L7.08617 4.70011C7.10381 4.71745 7.1257 4.72983 7.14965 4.736C7.1736 4.74217 7.19876 4.74192 7.22258 4.73527C7.79807 4.57959 8.39159 4.50051 8.98777 4.50007C10.4183 4.50007 11.8207 4.93706 13.1555 5.80085C14.3758 6.58835 15.4667 7.69507 16.3112 9.00007C16.3118 9.00087 16.3121 9.00186 16.3121 9.00288C16.3121 9.0039 16.3118 9.00489 16.3112 9.0057C15.6982 9.97071 14.9375 10.8335 14.057 11.5626C14.0494 11.5688 14.0432 11.5765 14.0389 11.5853C14.0345 11.594 14.0319 11.6035 14.0314 11.6133C14.0309 11.6231 14.0325 11.6328 14.036 11.6419C14.0395 11.6511 14.0448 11.6594 14.0517 11.6663L14.7513 12.3656C14.7637 12.3781 14.7803 12.3855 14.7979 12.3863C14.8154 12.3872 14.8327 12.3814 14.8462 12.3701C15.7863 11.5786 16.6 10.6482 17.2593 9.61109C17.3759 9.42833 17.4375 9.21595 17.4369 8.9992C17.4362 8.78245 17.3734 8.57044 17.2558 8.38835V8.38835Z" fill="black"/>
<path d="M8.99973 5.625C8.74693 5.62486 8.49492 5.65317 8.24845 5.70938C8.236 5.71196 8.22448 5.71787 8.21513 5.72648C8.20577 5.73509 8.19892 5.74608 8.19532 5.75827C8.19171 5.77046 8.19148 5.78341 8.19464 5.79572C8.19781 5.80804 8.20425 5.81926 8.21329 5.8282L12.1715 9.78539C12.1805 9.79443 12.1917 9.80088 12.204 9.80404C12.2163 9.8072 12.2293 9.80697 12.2415 9.80336C12.2537 9.79976 12.2646 9.79291 12.2733 9.78356C12.2819 9.7742 12.2878 9.76268 12.2904 9.75023C12.4031 9.25595 12.4029 8.74263 12.29 8.2484C12.1771 7.75416 11.9544 7.29171 11.6382 6.89539C11.3221 6.49906 10.9207 6.17905 10.4639 5.95912C10.0072 5.73919 9.5067 5.62499 8.99973 5.625V5.625ZM5.82794 8.21461C5.819 8.20557 5.80777 8.19913 5.79546 8.19596C5.78314 8.1928 5.7702 8.19303 5.75801 8.19664C5.74581 8.20024 5.73483 8.20709 5.72622 8.21645C5.71761 8.2258 5.71169 8.23732 5.70911 8.24977C5.58161 8.80676 5.59762 9.38701 5.75564 9.93613C5.91365 10.4853 6.2085 10.9853 6.61254 11.3893C7.01658 11.7933 7.51659 12.0882 8.06571 12.2462C8.61483 12.4042 9.19508 12.4202 9.75208 12.2927C9.76453 12.2902 9.77604 12.2842 9.7854 12.2756C9.79475 12.267 9.8016 12.256 9.80521 12.2438C9.80881 12.2316 9.80905 12.2187 9.80588 12.2064C9.80272 12.1941 9.79627 12.1828 9.78723 12.1739L5.82794 8.21461Z" fill="black"/>
</svg>
