<svg width="18" height="18" viewBox="0 0 18 18" fill="none" xmlns="http://www.w3.org/2000/svg">
<path fill-rule="evenodd" clip-rule="evenodd" d="M0.763194 8.37336C3.0507 5.09439 6.01669 3.375 8.98808 3.375C12.4778 3.375 15.484 5.64847 17.2576 8.38772L17.2584 8.38901C17.3758 8.57137 17.4382 8.78366 17.4382 9.00053C17.4382 9.21697 17.376 9.42885 17.2591 9.61097C15.487 12.3855 12.5003 14.625 8.98808 14.625C5.43847 14.625 2.50935 12.3902 0.741664 9.62378C0.621555 9.43727 0.559259 9.21941 0.56263 8.99757C0.566009 8.77518 0.635232 8.55879 0.761552 8.37573L0.763188 8.37335L0.763194 8.37336ZM1.6875 9.01467L1.68907 9.01709L1.68906 9.0171C3.32176 11.5728 5.9386 13.5 8.98808 13.5C12.0034 13.5 14.6767 11.5646 16.3113 9.00487L16.3124 9.00319C16.3129 9.0024 16.3132 9.00147 16.3132 9.00053C16.3132 8.99962 16.3129 8.99873 16.3124 8.99796C14.6716 6.46435 11.9764 4.5 8.98808 4.5C6.47996 4.5 3.82519 5.95167 1.6875 9.01467Z" fill="black"/>
<path fill-rule="evenodd" clip-rule="evenodd" d="M9 6.75C7.75736 6.75 6.75 7.75736 6.75 9C6.75 10.2426 7.75736 11.25 9 11.25C10.2426 11.25 11.25 10.2426 11.25 9C11.25 7.75736 10.2426 6.75 9 6.75ZM5.625 9C5.625 7.13604 7.13604 5.625 9 5.625C10.864 5.625 12.375 7.13604 12.375 9C12.375 10.864 10.864 12.375 9 12.375C7.13604 12.375 5.625 10.864 5.625 9Z" fill="black"/>
</svg>
